REM DIRINDEX 1\2\4,1\2\5,1\2\6,1\3\7,1\3\8
REM DIRNAME folder01,folder02,folder03,folder04,folder05,folder06,folder07,folder08
TITLE ""
FILE "021_Lesson 17_Output_Stage.mp3" MP3
  TRACK 01 AUDIO
    TITLE "0:"
    INDEX 01 00:00:00
  TRACK 02 AUDIO
    TITLE "6:cjc128_1210"
    INDEX 01 00:00:09
  TRACK 03 AUDIO
    TITLE "0:"
    INDEX 01 00:03:31
  TRACK 04 AUDIO
    TITLE "6:cjc128_1211"
    INDEX 01 00:04:09
  TRACK 05 AUDIO
    TITLE "0:"
    INDEX 01 00:06:04
  TRACK 06 AUDIO
    TITLE "4:cjc128_1212"
    INDEX 01 00:06:59
  TRACK 07 AUDIO
    TITLE "0:"
    INDEX 01 00:10:39
  TRACK 08 AUDIO
    TITLE "5:cjc128_1213"
    INDEX 01 00:14:66
  TRACK 09 AUDIO
    TITLE "0:"
    INDEX 01 00:18:54
  TRACK 10 AUDIO
    TITLE "6:cjc128_1214"
    INDEX 01 00:19:34
  TRACK 11 AUDIO
    TITLE "0:"
    INDEX 01 00:21:15
  TRACK 12 AUDIO
    TITLE "4:cjc128_1215"
    INDEX 01 00:21:64
  TRACK 13 AUDIO
    TITLE "0:"
    INDEX 01 00:24:74
  TRACK 14 AUDIO
    TITLE "5:cjc128_1216"
    INDEX 01 00:28:10
  TRACK 15 AUDIO
    TITLE "0:"
    INDEX 01 00:30:59
  TRACK 16 AUDIO
    TITLE "6:cjc128_1217"
    INDEX 01 00:31:35
  TRACK 17 AUDIO
    TITLE "0:"
    INDEX 01 00:33:32
  TRACK 18 AUDIO
    TITLE "4:cjc128_1218"
    INDEX 01 00:34:02
  TRACK 19 AUDIO
    TITLE "0:"
    INDEX 01 00:37:01
  TRACK 20 AUDIO
    TITLE "5:cjc128_1219"
    INDEX 01 00:40:30
  TRACK 21 AUDIO
    TITLE "0:"
    INDEX 01 00:43:21
  TRACK 22 AUDIO
    TITLE "6:cjc128_1220"
    INDEX 01 00:44:03
  TRACK 23 AUDIO
    TITLE "0:"
    INDEX 01 00:45:30
  TRACK 24 AUDIO
    TITLE "4:cjc128_1221"
    INDEX 01 00:46:06
  TRACK 25 AUDIO
    TITLE "0:"
    INDEX 01 00:49:55
  TRACK 26 AUDIO
    TITLE "5:cjc128_1222"
    INDEX 01 00:54:62
  TRACK 27 AUDIO
    TITLE "0:"
    INDEX 01 00:59:04
  TRACK 28 AUDIO
    TITLE "6:cjc128_1223"
    INDEX 01 01:00:02
  TRACK 29 AUDIO
    TITLE "0:"
    INDEX 01 01:01:70
  TRACK 30 AUDIO
    TITLE "4:cjc128_1224"
    INDEX 01 01:02:44
  TRACK 31 AUDIO
    TITLE "0:"
    INDEX 01 01:04:72
  TRACK 32 AUDIO
    TITLE "5:cjc128_1225"
    INDEX 01 01:08:07
  TRACK 33 AUDIO
    TITLE "0:"
    INDEX 01 01:10:41
  TRACK 34 AUDIO
    TITLE "6:cjc128_1226"
    INDEX 01 01:11:17
  TRACK 35 AUDIO
    TITLE "0:"
    INDEX 01 01:13:08
  TRACK 36 AUDIO
    TITLE "4:cjc128_1227"
    INDEX 01 01:13:65
  TRACK 37 AUDIO
    TITLE "0:"
    INDEX 01 01:17:73
  TRACK 38 AUDIO
    TITLE "5:cjc128_1228"
    INDEX 01 01:21:69
  TRACK 39 AUDIO
    TITLE "0:"
    INDEX 01 01:25:39
  TRACK 40 AUDIO
    TITLE "6:cjc128_1229"
    INDEX 01 01:26:09
  TRACK 41 AUDIO
    TITLE "0:"
    INDEX 01 01:27:73
  TRACK 42 AUDIO
    TITLE "4:cjc128_1230"
    INDEX 01 01:28:55
  TRACK 43 AUDIO
    TITLE "0:"
    INDEX 01 01:32:29
  TRACK 44 AUDIO
    TITLE "5:cjc128_1231"
    INDEX 01 01:36:33
  TRACK 45 AUDIO
    TITLE "0:"
    INDEX 01 01:39:43
  TRACK 46 AUDIO
    TITLE "6:cjc128_1232"
    INDEX 01 01:40:46
  TRACK 47 AUDIO
    TITLE "0:"
    INDEX 01 01:42:35
  TRACK 48 AUDIO
    TITLE "4:cjc128_1233"
    INDEX 01 01:43:19
  TRACK 49 AUDIO
    TITLE "0:"
    INDEX 01 01:45:69
  TRACK 50 AUDIO
    TITLE "5:cjc128_1234"
    INDEX 01 01:48:58
  TRACK 51 AUDIO
    TITLE "0:"
    INDEX 01 01:51:13
  TRACK 52 AUDIO
    TITLE "6:cjc128_1235"
    INDEX 01 01:51:58
  TRACK 53 AUDIO
    TITLE "0:"
    INDEX 01 01:53:55
  TRACK 54 AUDIO
    TITLE "4:cjc128_1236"
    INDEX 01 01:54:46
  TRACK 55 AUDIO
    TITLE "0:"
    INDEX 01 01:57:57
  TRACK 56 AUDIO
    TITLE "5:cjc128_1237"
    INDEX 01 02:01:11
  TRACK 57 AUDIO
    TITLE "0:"
    INDEX 01 02:04:06
  TRACK 58 AUDIO
    TITLE "6:cjc128_1238"
    INDEX 01 02:04:59
  TRACK 59 AUDIO
    TITLE "0:"
    INDEX 01 02:06:46
  TRACK 60 AUDIO
    TITLE "4:cjc128_1239"
    INDEX 01 02:07:43
  TRACK 61 AUDIO
    TITLE "0:"
    INDEX 01 02:10:42
  TRACK 62 AUDIO
    TITLE "5:cjc128_1240"
    INDEX 01 02:14:22
  TRACK 63 AUDIO
    TITLE "0:"
    INDEX 01 02:17:22
  TRACK 64 AUDIO
    TITLE "6:cjc128_1241"
    INDEX 01 02:17:67
  TRACK 65 AUDIO
    TITLE "0:"
    INDEX 01 02:19:52
  TRACK 66 AUDIO
    TITLE "4:cjc128_1242"
    INDEX 01 02:20:24
  TRACK 67 AUDIO
    TITLE "0:"
    INDEX 01 02:23:72
  TRACK 68 AUDIO
    TITLE "5:cjc128_1243"
    INDEX 01 02:27:11
  TRACK 69 AUDIO
    TITLE "0:"
    INDEX 01 02:29:74
  TRACK 70 AUDIO
    TITLE "6:cjc128_1244"
    INDEX 01 02:30:52
  TRACK 71 AUDIO
    TITLE "0:"
    INDEX 01 02:32:27
  TRACK 72 AUDIO
    TITLE "4:cjc128_1245"
    INDEX 01 02:33:07
  TRACK 73 AUDIO
    TITLE "0:"
    INDEX 01 02:37:60
  TRACK 74 AUDIO
    TITLE "5:cjc128_1246"
    INDEX 01 02:42:12
  TRACK 75 AUDIO
    TITLE "0:"
    INDEX 01 02:45:61
  TRACK 76 AUDIO
    TITLE "6:cjc128_1247"
    INDEX 01 02:46:47
  TRACK 77 AUDIO
    TITLE "0:"
    INDEX 01 02:48:36
  TRACK 78 AUDIO
    TITLE "4:cjc128_1248"
    INDEX 01 02:49:38
  TRACK 79 AUDIO
    TITLE "0:"
    INDEX 01 02:52:36
  TRACK 80 AUDIO
    TITLE "5:cjc128_1249"
    INDEX 01 02:55:60
  TRACK 81 AUDIO
    TITLE "0:"
    INDEX 01 02:58:19
  TRACK 82 AUDIO
    TITLE "6:cjc128_1250"
    INDEX 01 02:58:72
  TRACK 83 AUDIO
    TITLE "0:"
    INDEX 01 03:00:47
  TRACK 84 AUDIO
    TITLE "4:cjc128_1251"
    INDEX 01 03:01:25
  TRACK 85 AUDIO
    TITLE "0:"
    INDEX 01 03:04:49
  TRACK 86 AUDIO
    TITLE "5:cjc128_1252"
    INDEX 01 03:08:33
  TRACK 87 AUDIO
    TITLE "0:"
    INDEX 01 03:11:55
  TRACK 88 AUDIO
    TITLE "6:cjc128_1253"
    INDEX 01 03:12:27
  TRACK 89 AUDIO
    TITLE "0:"
    INDEX 01 03:14:02
  TRACK 90 AUDIO
    TITLE "4:cjc128_1254"
    INDEX 01 03:14:57
  TRACK 91 AUDIO
    TITLE "0:"
    INDEX 01 03:18:67
  TRACK 92 AUDIO
    TITLE "5:cjc128_1255"
    INDEX 01 03:23:46
  TRACK 93 AUDIO
    TITLE "0:"
    INDEX 01 03:27:40
  TRACK 94 AUDIO
    TITLE "6:cjc128_1256"
    INDEX 01 03:28:20
  TRACK 95 AUDIO
    TITLE "0:"
    INDEX 01 03:30:05
  TRACK 96 AUDIO
    TITLE "4:cjc128_1257"
    INDEX 01 03:30:54
  TRACK 97 AUDIO
    TITLE "0:"
    INDEX 01 03:34:03
  TRACK 98 AUDIO
    TITLE "5:cjc128_1258"
    INDEX 01 03:37:66
  TRACK 99 AUDIO
    TITLE "0:"
    INDEX 01 03:41:19
  TRACK 100 AUDIO
    TITLE "6:cjc128_1259"
    INDEX 01 03:41:64
  TRACK 101 AUDIO
    TITLE "0:"
    INDEX 01 03:43:61
  TRACK 102 AUDIO
    TITLE "4:cjc128_1260"
    INDEX 01 03:44:43
  TRACK 103 AUDIO
    TITLE "0:"
    INDEX 01 03:48:19
  TRACK 104 AUDIO
    TITLE "5:cjc128_1261"
    INDEX 01 03:51:25
  TRACK 105 AUDIO
    TITLE "0:"
    INDEX 01 03:54:04
  TRACK 106 AUDIO
    TITLE "6:cjc128_1262"
    INDEX 01 03:54:51
  TRACK 107 AUDIO
    TITLE "0:"
    INDEX 01 03:56:46
  TRACK 108 AUDIO
    TITLE "4:cjc128_1263"
    INDEX 01 03:57:26
  TRACK 109 AUDIO
    TITLE "0:"
    INDEX 01 04:00:49
  TRACK 110 AUDIO
    TITLE "5:cjc128_1264"
    INDEX 01 04:04:51
  TRACK 111 AUDIO
    TITLE "0:"
    INDEX 01 04:07:65
  TRACK 112 AUDIO
    TITLE "6:cjc128_1265"
    INDEX 01 04:08:57
  TRACK 113 AUDIO
    TITLE "0:"
    INDEX 01 04:10:54
  TRACK 114 AUDIO
    TITLE "4:cjc128_1266"
    INDEX 01 04:11:28
  TRACK 115 AUDIO
    TITLE "0:"
    INDEX 01 04:14:46
  TRACK 116 AUDIO
    TITLE "5:cjc128_1267"
    INDEX 01 04:18:22
  TRACK 117 AUDIO
    TITLE "0:"
    INDEX 01 04:21:20
  TRACK 118 AUDIO
    TITLE "6:cjc128_1268"
    INDEX 01 04:22:04
  TRACK 119 AUDIO
    TITLE "0:"
    INDEX 01 04:24:07
  TRACK 120 AUDIO
    TITLE "4:cjc128_1269"
    INDEX 01 04:24:58
  TRACK 121 AUDIO
    TITLE "0:"
    INDEX 01 04:28:58
  TRACK 122 AUDIO
    TITLE "5:cjc128_1270"
    INDEX 01 04:32:73
  TRACK 123 AUDIO
    TITLE "0:"
    INDEX 01 04:36:36
  TRACK 124 AUDIO
    TITLE "6:cjc128_1271"
    INDEX 01 04:37:17
  TRACK 125 AUDIO
    TITLE "0:"
    INDEX 01 04:39:30
  TRACK 126 AUDIO
    TITLE "4:cjc128_1272"
    INDEX 01 04:40:10
  TRACK 127 AUDIO
    TITLE "0:"
    INDEX 01 04:44:45
  TRACK 128 AUDIO
    TITLE "5:cjc128_1273"
    INDEX 01 04:48:64
  TRACK 129 AUDIO
    TITLE "0:"
    INDEX 01 04:52:36
  TRACK 130 AUDIO
    TITLE "6:cjc128_1274"
    INDEX 01 04:53:10
  TRACK 131 AUDIO
    TITLE "0:"
    INDEX 01 04:55:05
  TRACK 132 AUDIO
    TITLE "4:cjc128_1275"
    INDEX 01 04:55:58
  TRACK 133 AUDIO
    TITLE "0:"
    INDEX 01 04:59:25
  TRACK 134 AUDIO
    TITLE "5:cjc128_1276"
    INDEX 01 05:02:33
  TRACK 135 AUDIO
    TITLE "0:"
    INDEX 01 05:05:14
  TRACK 136 AUDIO
    TITLE "6:cjc128_1277"
    INDEX 01 05:05:61
  TRACK 137 AUDIO
    TITLE "0:"
    INDEX 01 05:07:56
  TRACK 138 AUDIO
    TITLE "4:cjc128_1278"
    INDEX 01 05:08:36
  TRACK 139 AUDIO
    TITLE "0:"
    INDEX 01 05:12:37
  TRACK 140 AUDIO
    TITLE "5:cjc128_1279"
    INDEX 01 05:16:70
  TRACK 141 AUDIO
    TITLE "0:"
    INDEX 01 05:20:52
  TRACK 142 AUDIO
    TITLE "6:cjc128_1280"
    INDEX 01 05:21:30
  TRACK 143 AUDIO
    TITLE "0:"
    INDEX 01 05:23:08
  TRACK 144 AUDIO
    TITLE "4:cjc128_1281"
    INDEX 01 05:23:55
  TRACK 145 AUDIO
    TITLE "0:"
    INDEX 01 05:28:01
  TRACK 146 AUDIO
    TITLE "5:cjc128_1282"
    INDEX 01 05:31:37
  TRACK 147 AUDIO
    TITLE "0:"
    INDEX 01 05:34:27
